<svg xmlns="http://www.w3.org/2000/svg" viewBox="35 23 295 202">
  <path d="M0 0 C0.33 0.99 0.66 1.98 1 3 C0.09757568 2.99476318 -0.80484863 2.98952637 -1.73461914 2.98413086 C-5.10978851 2.96700242 -8.4849111 2.95450788 -11.86010742 2.94506836 C-13.31584404 2.94006583 -14.77157571 2.9332617 -16.22729492 2.92456055 C-18.32992788 2.912315 -20.43249391 2.90673077 -22.53515625 2.90234375 C-23.797229 2.89710693 -25.05930176 2.89187012 -26.35961914 2.88647461 C-32.30275866 3.0718116 -37.95942277 4.14996382 -43.75 5.4375 C-48.98321381 6.58435324 -54.21355688 7.60534918 -59.5 8.47265625 C-62.43108721 9.09093246 -65.17140749 10.01598386 -68 11 C-68.93199219 11.30679688 -69.86398438 11.61359375 -70.82421875 11.9296875 C-80.74823832 15.20610324 -90.51068277 18.60962775 -100 23 C-101.20011719 23.53109375 -102.40023437 24.0621875 -103.63671875 24.609375 C-111.90213929 28.32094571 -119.78826755 32.4672591 -127.5625 37.125 C-128.38274658 37.61548828 -129.20299316 38.10597656 -130.0480957 38.61132812 C-143.00434443 46.50957788 -158.66255286 56.98023138 -167.65625 69.26171875 C-168.0996875 69.83535156 -168.543125 70.40898438 -169 71 C-169.66 71 -170.32 71 -171 71 C-171 71.66 -171 72.32 -171 73 C-171.66 73 -172.32 73 -173 73 C-173.23074219 73.51304688 -173.46148437 74.02609375 -173.69921875 74.5546875 C-175.48648672 77.9145366 -177.66485557 80.99000513 -179.8125 84.125 C-185.14251738 92.02443752 -189.70723243 99.65256299 -192 109 C-192.37125 110.010625 -192.7425 111.02125 -193.125 112.0625 C-195.21255891 119.44410832 -195.3484808 129.02433929 -192.09765625 136.0703125 C-184.70167958 149.07249213 -175.2655674 155.45909871 -160.91113281 159.60302734 C-146.6679354 163.38202431 -132.65124211 163.47028678 -118 163 C-118 163.66 -118 164.32 -118 165 C-127.28086356 168.08576936 -136.26531826 170.76082387 -146 172 C-147.36595922 172.19740663 -148.73183955 172.39535971 -150.09765625 172.59375 C-162.01354795 174.25125374 -172.46831666 173.65787232 -184.25 171.1875 C-184.99499756 171.03458496 -185.73999512 170.88166992 -186.50756836 170.72412109 C-200.31943526 167.61863962 -210.75010442 158.83605927 -218.8125 147.4375 C-220.31340543 144.35669412 -221.15566977 141.32103222 -222 138 C-222.391875 136.824375 -222.78375 135.64875 -223.1875 134.4375 C-226.97317835 118.56207466 -219.43901848 102.18745426 -211.44921875 88.8515625 C-200.71877671 71.62965353 -185.77970206 55.424478 -169 44 C-168.57460937 43.55527344 -168.14921875 43.11054687 -167.7109375 42.65234375 C-154.33790364 29.7372905 -133.33955101 19.67138309 -116.125 13 C-112.38630483 11.54297406 -112.38630483 11.54297406 -108.66796875 10.03515625 C-95.03652234 4.40625052 -81.45937766 0.72021169 -67 -2 C-65.29070312 -2.32484375 -65.29070312 -2.32484375 -63.546875 -2.65625 C-43.16950509 -6.28363522 -19.65033354 -7.61844482 0 0 Z" fill="#03D3FB" transform="translate(261,31)"/>
  <path d="M0 0 C0.99 0.33 1.98 0.66 3 1 C7.8841629 18.7486991 4.86918541 34.54106685 -3.609375 50.5859375 C-10.69511297 62.88646016 -10.69511297 62.88646016 -15 68 C-15.66 68 -16.32 68 -17 68 C-17.40412109 68.87785156 -17.40412109 68.87785156 -17.81640625 69.7734375 C-23.49989442 80.46514793 -34.89486574 88.67167769 -44.5625 95.625 C-45.17037354 96.06312012 -45.77824707 96.50124023 -46.40454102 96.95263672 C-50.74221269 100 -50.74221269 100 -53 100 C-53 100.66 -53 101.32 -53 102 C-55.6121549 103.76530611 -58.20787788 105.36980061 -60.9375 106.9375 C-61.78070801 107.42186523 -62.62391602 107.90623047 -63.49267578 108.40527344 C-97.20438902 127.30139929 -137.77629613 140.768618 -176.6875 140.375 C-177.46260925 140.37200897 -178.23771851 140.36901794 -179.03631592 140.36593628 C-210.55237693 140.22381153 -210.55237693 140.22381153 -219 136 C-219 135.34 -219 134.68 -219 134 C-218.0706665 133.90501221 -217.14133301 133.81002441 -216.18383789 133.7121582 C-154.75383978 127.33252512 -94.11253397 109.72964703 -46.38085938 68.60498047 C-42.19214305 65 -42.19214305 65 -40 65 C-39.78085937 64.44828125 -39.56171875 63.8965625 -39.3359375 63.328125 C-37.58317858 60.27360945 -35.16775126 58.13370347 -32.625 55.75 C-17.00109326 40.59031112 -5.48534369 22.39163916 -1 1 C-0.67 0.67 -0.34 0.34 0 0 Z" fill="#0265F9" transform="translate(316,81)"/>
  <path d="M0 0 C6.96641789 3.99945968 10.11589769 10.82436284 12.29296875 18.31640625 C13.56133607 26.20846956 9.22295336 32.25113658 5.16796875 38.69140625 C0.36540035 43.07636001 -5.11007648 45.16211328 -11.62109375 45.44140625 C-17.20125193 45.07247017 -21.73991596 43.85515407 -26.70703125 41.31640625 C-26.70703125 40.65640625 -26.70703125 39.99640625 -26.70703125 39.31640625 C-28.02703125 38.65640625 -29.34703125 37.99640625 -30.70703125 37.31640625 C-30.70703125 36.65640625 -30.70703125 35.99640625 -30.70703125 35.31640625 C-31.36703125 35.31640625 -32.02703125 35.31640625 -32.70703125 35.31640625 C-36.06576575 29.03703305 -37.48349657 23.48168273 -36.70703125 16.31640625 C-35.26864386 12.20672801 -33.6763891 8.54396913 -30.70703125 5.31640625 C-30.04703125 5.31640625 -29.38703125 5.31640625 -28.70703125 5.31640625 C-28.70703125 4.65640625 -28.70703125 3.99640625 -28.70703125 3.31640625 C-28.04703125 3.31640625 -27.38703125 3.31640625 -26.70703125 3.31640625 C-26.70703125 2.65640625 -26.70703125 1.99640625 -26.70703125 1.31640625 C-17.09949899 -3.17646896 -9.89553024 -4.40312741 0 0 Z" fill="#01C9FC" transform="translate(310.70703125,30.68359375)"/>
</svg>
