<?xml version="1.0" encoding="UTF-8"?>
<svg version="1.1" xmlns="http://www.w3.org/2000/svg" width="1000" height="250">
<path d="M0 0 C37.29 0 74.58 0 113 0 C112.67 9.57 112.34 19.14 112 29 C101.73429015 29.15307967 91.46854296 29.30184978 81.20266151 29.4429636 C76.43617024 29.50865713 71.66972188 29.57626382 66.90332031 29.64819336 C62.30631258 29.71749701 57.70926009 29.78183979 53.11213303 29.84269524 C51.35537556 29.86683193 49.59864202 29.89277767 47.84193802 29.92053413 C45.38766473 29.95900798 42.93338629 29.99113712 40.47900391 30.02172852 C39.74748611 30.03467453 39.01596832 30.04762054 38.26228333 30.06095886 C33.22810432 30.11405216 33.22810432 30.11405216 31 29 C31 41.21 31 53.42 31 66 C32.485 65.505 32.485 65.505 34 65 C36.31521155 64.91001937 38.63299526 64.88243106 40.94995117 64.88647461 C42.00399391 64.88625557 42.00399391 64.88625557 43.07933044 64.8860321 C45.40057468 64.88672843 47.72173854 64.89450774 50.04296875 64.90234375 C51.6529384 64.90420892 53.26290861 64.90563236 54.87287903 64.90663147 C59.10942147 64.91044882 63.3459296 64.92027245 67.5824585 64.93133545 C71.90587907 64.94156636 76.22930519 64.94613269 80.55273438 64.95117188 C89.03517199 64.96189541 97.51758173 64.97896247 106 65 C106.02465746 69.1117256 106.04283959 73.22342278 106.05493164 77.33520508 C106.0599708 78.73495228 106.06680216 80.1346942 106.07543945 81.53442383 C106.0875232 83.54245777 106.09269807 85.55052957 106.09765625 87.55859375 C106.10289307 88.76829834 106.10812988 89.97800293 106.11352539 91.22436523 C106 94 106 94 105 95 C102.69946165 95.09443335 100.39597827 95.11742128 98.09350586 95.11352539 C97.37159561 95.11367142 96.64968536 95.11381744 95.90589905 95.1139679 C93.50885053 95.11326869 91.11187877 95.10547595 88.71484375 95.09765625 C87.05717511 95.0957921 85.39950593 95.09436818 83.74183655 95.09336853 C79.37045786 95.08954312 74.99911219 95.07971265 70.62774658 95.06866455 C65.38732333 95.05665641 60.14688906 95.0520483 54.90645599 95.04621124 C46.93761434 95.0365009 38.96884518 95.01734452 31 95 C31 107.54 31 120.08 31 133 C31.99 132.67 32.98 132.34 34 132 C36.54170512 131.93774874 39.05246175 131.93309669 41.5925293 131.97827148 C42.36349945 131.98787903 43.1344696 131.99748657 43.92880249 132.00738525 C46.47736767 132.04036875 49.02576108 132.08070355 51.57421875 132.12109375 C53.34112441 132.1453955 55.10803643 132.16923903 56.87495422 132.19264221 C61.52584066 132.25547765 66.17661457 132.32454587 70.82739258 132.39489746 C75.57302729 132.46558575 80.3187418 132.53039976 85.06445312 132.59570312 C94.37639215 132.72470855 103.6882072 132.86083904 113 133 C113 142.24 113 151.48 113 161 C75.71 161 38.42 161 0 161 C0 107.87 0 54.74 0 0 Z " fill="#FDFDFD" transform="translate(388,45)"/>
<path d="M0 0 C1.093125 0.00257812 2.18625 0.00515625 3.3125 0.0078125 C4.405625 0.00523438 5.49875 0.00265625 6.625 0 C9.3125 0.1328125 9.3125 0.1328125 10.3125 1.1328125 C12.83109228 1.6947643 15.34123303 2.21258023 17.875 2.6953125 C18.58591797 2.83388672 19.29683594 2.97246094 20.02929688 3.11523438 C21.78969932 3.45786304 23.55101797 3.79577803 25.3125 4.1328125 C25.3125 4.7928125 25.3125 5.4528125 25.3125 6.1328125 C25.869375 6.2565625 26.42625 6.3803125 27 6.5078125 C31.88109499 7.82702736 34.89027297 9.33033802 38.3125 13.1328125 C38.27125 11.8540625 38.23 10.5753125 38.1875 9.2578125 C38.1171875 7.078125 38.1171875 7.078125 38.3125 5.1328125 C40.3125 3.1328125 40.3125 3.1328125 43.29345703 2.90576172 C44.53981934 2.91623535 45.78618164 2.92670898 47.0703125 2.9375 C48.06488968 2.94174484 48.06488968 2.94174484 49.07955933 2.94607544 C51.19905583 2.95727815 53.31813104 2.98238199 55.4375 3.0078125 C56.87369182 3.01784222 58.30989025 3.02696809 59.74609375 3.03515625 C63.26836628 3.0572175 66.79039203 3.09174756 70.3125 3.1328125 C71.51842584 5.54466417 71.42142199 7.00847746 71.39479065 9.70120239 C71.38775116 10.66316528 71.38071167 11.62512817 71.37345886 12.61624146 C71.36051285 13.6750351 71.34756683 14.73382874 71.33422852 15.82470703 C71.32462097 16.93690613 71.31501343 18.04910522 71.30511475 19.19500732 C71.27203291 22.88527578 71.23173556 26.57542921 71.19140625 30.265625 C71.16711411 32.81867055 71.14327011 35.3717204 71.11985779 37.92477417 C71.06336506 43.96671489 71.00233965 50.00859352 70.93913645 56.05046642 C70.86744083 62.92821603 70.80150775 69.80601707 70.73606598 76.68382859 C70.60130307 90.83355851 70.45851913 104.98319449 70.3125 119.1328125 C60.0825 119.1328125 49.8525 119.1328125 39.3125 119.1328125 C38.1547494 115.65956069 38.24383348 112.77213802 38.3125 109.1328125 C37.36375 110.0196875 36.415 110.9065625 35.4375 111.8203125 C23.80548313 121.72039929 10.04932704 123.20790609 -4.6875 122.1328125 C-19.40254767 120.30588785 -31.7855445 112.98726072 -41.6875 102.1328125 C-41.6875 101.4728125 -41.6875 100.8128125 -41.6875 100.1328125 C-42.3475 100.1328125 -43.0075 100.1328125 -43.6875 100.1328125 C-51.83347058 87.19628355 -57.07242518 75.18726065 -57.1875 59.6953125 C-57.19394531 58.8791748 -57.20039062 58.06303711 -57.20703125 57.22216797 C-56.90538705 42.97818077 -48.85035285 28.40067621 -39.08984375 18.33984375 C-29.08404901 9.14752826 -17.50741709 1.82380835 -3.6875 1.1328125 C-2.6875 0.1328125 -2.6875 0.1328125 0 0 Z M-16.86328125 37.9296875 C-24.29028755 46.89934822 -26.60777787 56.77839827 -25.6875 68.1328125 C-24.03745679 74.88384642 -20.56315867 81.15313977 -15.6875 86.1328125 C-14.6975 86.4628125 -13.7075 86.7928125 -12.6875 87.1328125 C-12.6875 87.7928125 -12.6875 88.4528125 -12.6875 89.1328125 C-1.8734573 94.28950879 6.0705984 96.29554495 17.8125 93.0078125 C26.65275774 89.79878351 33.04146335 83.40882121 37.3125 75.1328125 C40.61193464 66.93524808 40.76008546 57.02795252 37.75 48.6953125 C33.26858951 39.31235928 26.62644566 34.41900724 17.3125 30.1328125 C5.34334641 26.14309464 -7.79028726 29.46401359 -16.86328125 37.9296875 Z " fill="#FCFCFC" transform="translate(624.6875,86.8671875)"/>
<path d="M0 0 C0 0.66 0 1.32 0 2 C0.72703125 1.94199219 1.4540625 1.88398437 2.203125 1.82421875 C10.60499692 1.44721168 16.54252354 3.24036062 24 7 C25.27617188 7.62841797 25.27617188 7.62841797 26.578125 8.26953125 C31.15617113 10.65708842 34.39873968 13.24216314 38 17 C37.64695801 17.49927002 37.29391602 17.99854004 36.93017578 18.51293945 C35.32803702 20.77916763 33.72651213 23.04582895 32.125 25.3125 C31.56941406 26.09818359 31.01382813 26.88386719 30.44140625 27.69335938 C29.63896484 28.8293457 29.63896484 28.8293457 28.8203125 29.98828125 C28.32805176 30.68477783 27.83579102 31.38127441 27.32861328 32.09887695 C26.19734704 33.71761459 25.09545562 35.35681656 24 37 C20.73341402 36.59167675 18.23742383 35.66811738 15.375 34.125 C4.2753966 28.49297901 -9.1496572 26.77435299 -21.30859375 29.83203125 C-24.79244776 31.18208789 -27.34840602 32.34840602 -30 35 C-30.46957082 38.98310379 -30.46957082 38.98310379 -28.9609375 42.55859375 C-26.03864274 44.70665504 -22.78769191 45.32720571 -19.3125 46.125 C-18.62994141 46.29386719 -17.94738281 46.46273437 -17.24414062 46.63671875 C-13.18182949 47.61105966 -9.1601871 48.29228314 -5.01147461 48.76708984 C5.33610177 49.96524349 15.02222113 51.39537504 24 57 C24.63808594 57.37640625 25.27617188 57.7528125 25.93359375 58.140625 C27.625 59.1875 27.625 59.1875 30 61 C30 61.66 30 62.32 30 63 C30.66 63 31.32 63 32 63 C38.92490053 72.18302027 40.7069907 80.13425216 39.6640625 91.4609375 C38.05031879 100.0612422 33.00816492 107.7733499 26 113 C7.88429596 124.42018302 -15.93990517 124.55579095 -36.37890625 120.046875 C-45.4047292 117.43746772 -53.54902825 113.79520025 -61 108 C-61.99 107.67 -62.98 107.34 -64 107 C-63.3847117 103.1834291 -61.60884538 100.81179384 -59.3125 97.75 C-58.59707031 96.78964844 -57.88164063 95.82929688 -57.14453125 94.83984375 C-56.08298828 93.43412109 -56.08298828 93.43412109 -55 92 C-54.38511719 91.17628906 -53.77023437 90.35257812 -53.13671875 89.50390625 C-51.76330259 87.66503641 -50.38462638 85.83043412 -49 84 C-47.47632813 84.81404297 -47.47632813 84.81404297 -45.921875 85.64453125 C-37.7796131 89.90980932 -30.14421543 93.43356778 -21 95 C-20.21238281 95.14050781 -19.42476562 95.28101563 -18.61328125 95.42578125 C-9.54686365 96.73906687 0.01136821 95.73400403 8 91 C9.42041821 88.15916359 9.31452272 86.14522722 9 83 C5.81552748 78.59073035 1.73349144 77.49929982 -3.47802734 76.54736328 C-6.44152429 76.07889782 -9.40796631 75.63298385 -12.375 75.1875 C-28.70273816 72.57753112 -44.59572764 69.59820615 -55.55859375 56.1171875 C-60.53013765 48.81481136 -60.89345693 40.60594143 -60 32 C-58.00033527 22.46700715 -53.08008231 15.50962676 -45.09375 9.9921875 C-30.51528953 1.1935712 -16.74451485 -0.38248892 0 0 Z " fill="#FCFCFC" transform="translate(916,87)"/>
<path d="M0 0 C0.33 0.99 0.66 1.98 1 3 C0.09757568 2.99476318 -0.80484863 2.98952637 -1.73461914 2.98413086 C-5.10978851 2.96700242 -8.4849111 2.95450788 -11.86010742 2.94506836 C-13.31584404 2.94006583 -14.77157571 2.9332617 -16.22729492 2.92456055 C-18.32992788 2.912315 -20.43249391 2.90673077 -22.53515625 2.90234375 C-23.797229 2.89710693 -25.05930176 2.89187012 -26.35961914 2.88647461 C-32.30275866 3.0718116 -37.95942277 4.14996382 -43.75 5.4375 C-48.98321381 6.58435324 -54.21355688 7.60534918 -59.5 8.47265625 C-62.43108721 9.09093246 -65.17140749 10.01598386 -68 11 C-68.93199219 11.30679688 -69.86398438 11.61359375 -70.82421875 11.9296875 C-80.74823832 15.20610324 -90.51068277 18.60962775 -100 23 C-101.20011719 23.53109375 -102.40023437 24.0621875 -103.63671875 24.609375 C-111.90213929 28.32094571 -119.78826755 32.4672591 -127.5625 37.125 C-128.38274658 37.61548828 -129.20299316 38.10597656 -130.0480957 38.61132812 C-143.00434443 46.50957788 -158.66255286 56.98023138 -167.65625 69.26171875 C-168.0996875 69.83535156 -168.543125 70.40898438 -169 71 C-169.66 71 -170.32 71 -171 71 C-171 71.66 -171 72.32 -171 73 C-171.66 73 -172.32 73 -173 73 C-173.23074219 73.51304688 -173.46148437 74.02609375 -173.69921875 74.5546875 C-175.48648672 77.9145366 -177.66485557 80.99000513 -179.8125 84.125 C-185.14251738 92.02443752 -189.70723243 99.65256299 -192 109 C-192.37125 110.010625 -192.7425 111.02125 -193.125 112.0625 C-195.21255891 119.44410832 -195.3484808 129.02433929 -192.09765625 136.0703125 C-184.70167958 149.07249213 -175.2655674 155.45909871 -160.91113281 159.60302734 C-146.6679354 163.38202431 -132.65124211 163.47028678 -118 163 C-118 163.66 -118 164.32 -118 165 C-127.28086356 168.08576936 -136.26531826 170.76082387 -146 172 C-147.36595922 172.19740663 -148.73183955 172.39535971 -150.09765625 172.59375 C-162.01354795 174.25125374 -172.46831666 173.65787232 -184.25 171.1875 C-184.99499756 171.03458496 -185.73999512 170.88166992 -186.50756836 170.72412109 C-200.31943526 167.61863962 -210.75010442 158.83605927 -218.8125 147.4375 C-220.31340543 144.35669412 -221.15566977 141.32103222 -222 138 C-222.391875 136.824375 -222.78375 135.64875 -223.1875 134.4375 C-226.97317835 118.56207466 -219.43901848 102.18745426 -211.44921875 88.8515625 C-200.71877671 71.62965353 -185.77970206 55.424478 -169 44 C-168.57460937 43.55527344 -168.14921875 43.11054687 -167.7109375 42.65234375 C-154.33790364 29.7372905 -133.33955101 19.67138309 -116.125 13 C-112.38630483 11.54297406 -112.38630483 11.54297406 -108.66796875 10.03515625 C-95.03652234 4.40625052 -81.45937766 0.72021169 -67 -2 C-65.29070312 -2.32484375 -65.29070312 -2.32484375 -63.546875 -2.65625 C-43.16950509 -6.28363522 -19.65033354 -7.61844482 0 0 Z " fill="#03D3FB" transform="translate(261,31)"/>
<path d="M0 0 C0 53.13 0 106.26 0 161 C-10.56 161 -21.12 161 -32 161 C-31.67 107.87 -31.34 54.74 -31 0 C-2 -1 -2 -1 0 0 Z " fill="#FCFCFC" transform="translate(553,45)"/>
<path d="M0 0 C0.16729064 3.96907474 0.32788226 7.93835721 0.48217773 11.90795898 C0.53565802 13.25927079 0.59099194 14.61051052 0.64819336 15.96166992 C0.72993571 17.90002989 0.80453323 19.83868704 0.87890625 21.77734375 C0.94960327 23.52905884 0.94960327 23.52905884 1.02172852 25.31616211 C1 28 1 28 0 29 C-2.31286764 28.99403131 -4.62566267 28.94428583 -6.9375 28.875 C-16.76578744 28.75041443 -25.24554974 30.70288262 -33 37 C-40.53639016 45.75850749 -40.46214637 56.99872795 -40.51171875 67.9765625 C-40.52859981 69.39718136 -40.54675455 70.81778559 -40.56611633 72.2383728 C-40.61325135 75.9437401 -40.64329496 79.6490481 -40.66955566 83.35461426 C-40.7048378 87.81864427 -40.76174462 92.28244665 -40.81494904 96.74629211 C-40.89303415 103.49749748 -40.94396222 110.24841376 -41 117 C-51.23 117 -61.46 117 -72 117 C-72 78.72 -72 40.44 -72 1 C-61.77 1 -51.54 1 -41 1 C-40.67 5.29 -40.34 9.58 -40 14 C-39.47535156 13.08734375 -38.95070313 12.1746875 -38.41015625 11.234375 C-34.27705659 5.0610221 -25.81307656 2.08467215 -18.8828125 0.11328125 C-12.51211634 -1.13085747 -6.32474902 -1.70754563 0 0 Z " fill="#FCFCFC" transform="translate(788,89)"/>
<path d="M0 0 C0.99 0.33 1.98 0.66 3 1 C7.8841629 18.7486991 4.86918541 34.54106685 -3.609375 50.5859375 C-10.69511297 62.88646016 -10.69511297 62.88646016 -15 68 C-15.66 68 -16.32 68 -17 68 C-17.40412109 68.87785156 -17.40412109 68.87785156 -17.81640625 69.7734375 C-23.49989442 80.46514793 -34.89486574 88.67167769 -44.5625 95.625 C-45.17037354 96.06312012 -45.77824707 96.50124023 -46.40454102 96.95263672 C-50.74221269 100 -50.74221269 100 -53 100 C-53 100.66 -53 101.32 -53 102 C-55.6121549 103.76530611 -58.20787788 105.36980061 -60.9375 106.9375 C-61.78070801 107.42186523 -62.62391602 107.90623047 -63.49267578 108.40527344 C-97.20438902 127.30139929 -137.77629613 140.768618 -176.6875 140.375 C-177.46260925 140.37200897 -178.23771851 140.36901794 -179.03631592 140.36593628 C-210.55237693 140.22381153 -210.55237693 140.22381153 -219 136 C-219 135.34 -219 134.68 -219 134 C-218.0706665 133.90501221 -217.14133301 133.81002441 -216.18383789 133.7121582 C-154.75383978 127.33252512 -94.11253397 109.72964703 -46.38085938 68.60498047 C-42.19214305 65 -42.19214305 65 -40 65 C-39.78085937 64.44828125 -39.56171875 63.8965625 -39.3359375 63.328125 C-37.58317858 60.27360945 -35.16775126 58.13370347 -32.625 55.75 C-17.00109326 40.59031112 -5.48534369 22.39163916 -1 1 C-0.67 0.67 -0.34 0.34 0 0 Z " fill="#0265F9" transform="translate(316,81)"/>
<path d="M0 0 C1.20527344 0.00322266 2.41054688 0.00644531 3.65234375 0.00976562 C4.90660156 0.01814453 6.16085937 0.02652344 7.453125 0.03515625 C9.35771484 0.04192383 9.35771484 0.04192383 11.30078125 0.04882812 C14.43494336 0.06061069 17.56901041 0.07706209 20.703125 0.09765625 C20.85689069 15.0744661 21.00492754 30.05132434 21.1460886 45.02825832 C21.21176224 51.98184096 21.27933158 58.93539564 21.35131836 65.88891602 C21.42071952 72.59318865 21.48489782 79.2974923 21.54582024 86.00184822 C21.56998855 88.56604788 21.59593892 91.13023135 21.62365913 93.69439507 C21.66203845 97.27206767 21.69421245 100.84974421 21.72485352 104.42749023 C21.73779953 105.49922989 21.75074554 106.57096954 21.76408386 107.67518616 C21.77112335 108.64418854 21.77816284 109.61319092 21.78541565 110.61155701 C21.79371179 111.45868476 21.80200792 112.30581251 21.81055546 113.1786108 C21.703125 115.09765625 21.703125 115.09765625 20.703125 116.09765625 C10.473125 116.09765625 0.243125 116.09765625 -10.296875 116.09765625 C-10.296875 78.14765625 -10.296875 40.19765625 -10.296875 1.09765625 C-6.58536915 0.16977979 -3.79184858 -0.01788608 0 0 Z " fill="#FCFCFC" transform="translate(815.296875,89.90234375)"/>
<path d="M0 0 C6.96641789 3.99945968 10.11589769 10.82436284 12.29296875 18.31640625 C13.56133607 26.20846956 9.22295336 32.25113658 5.16796875 38.69140625 C0.36540035 43.07636001 -5.11007648 45.16211328 -11.62109375 45.44140625 C-17.20125193 45.07247017 -21.73991596 43.85515407 -26.70703125 41.31640625 C-26.70703125 40.65640625 -26.70703125 39.99640625 -26.70703125 39.31640625 C-28.02703125 38.65640625 -29.34703125 37.99640625 -30.70703125 37.31640625 C-30.70703125 36.65640625 -30.70703125 35.99640625 -30.70703125 35.31640625 C-31.36703125 35.31640625 -32.02703125 35.31640625 -32.70703125 35.31640625 C-36.06576575 29.03703305 -37.48349657 23.48168273 -36.70703125 16.31640625 C-35.26864386 12.20672801 -33.6763891 8.54396913 -30.70703125 5.31640625 C-30.04703125 5.31640625 -29.38703125 5.31640625 -28.70703125 5.31640625 C-28.70703125 4.65640625 -28.70703125 3.99640625 -28.70703125 3.31640625 C-28.04703125 3.31640625 -27.38703125 3.31640625 -26.70703125 3.31640625 C-26.70703125 2.65640625 -26.70703125 1.99640625 -26.70703125 1.31640625 C-17.09949899 -3.17646896 -9.89553024 -4.40312741 0 0 Z " fill="#01C9FC" transform="translate(310.70703125,30.68359375)"/>
<path d="M0 0 C5.40763632 4.89262334 7.28434599 9.73686654 7.71875 16.8828125 C7.54237149 21.57154125 6.34580435 25.34040192 3.296875 28.9453125 C-0.01733172 31.99787132 -2.93627738 33.05794838 -7.375 33.375 C-7.375 34.035 -7.375 34.695 -7.375 35.375 C-11.99963797 35.80855981 -16.34896166 34.66081149 -20.375 32.375 C-20.87 30.89 -20.87 30.89 -21.375 29.375 C-22.035 29.375 -22.695 29.375 -23.375 29.375 C-23.375 28.715 -23.375 28.055 -23.375 27.375 C-24.035 27.375 -24.695 27.375 -25.375 27.375 C-28.89466071 21.94885641 -29.47013591 16.65199848 -28.375 10.375 C-25.71642411 4.88426423 -21.63300946 1.29611637 -16.375 -1.625 C-10.81440718 -3.47853094 -5.21491589 -2.51088543 0 0 Z " fill="#02D2FC" transform="translate(831.375,46.625)"/>
<path d="M0 0 C0.495 1.485 0.495 1.485 1 3 C0.09757568 2.99476318 -0.80484863 2.98952637 -1.73461914 2.98413086 C-5.10978851 2.96700242 -8.4849111 2.95450788 -11.86010742 2.94506836 C-13.31584404 2.94006583 -14.77157571 2.9332617 -16.22729492 2.92456055 C-18.32992788 2.912315 -20.43249391 2.90673077 -22.53515625 2.90234375 C-23.797229 2.89710693 -25.05930176 2.89187012 -26.35961914 2.88647461 C-32.30275866 3.0718116 -37.95942277 4.14996382 -43.75 5.4375 C-48.98321381 6.58435324 -54.21355688 7.60534918 -59.5 8.47265625 C-62.43108721 9.09093246 -65.17140749 10.01598386 -68 11 C-68.93199219 11.30679688 -69.86398438 11.61359375 -70.82421875 11.9296875 C-80.027343 14.9680996 -89.10074943 18.08191956 -97.91796875 22.1171875 C-100.88786191 23.37646678 -103.87701786 24.20264286 -107 25 C-107 23.68 -107 22.36 -107 21 C-105.02 21 -103.04 21 -101 21 C-101 20.34 -101 19.68 -101 19 C-99.0429132 18.32968281 -97.08428887 17.66385317 -95.125 17 C-94.03445312 16.62875 -92.94390625 16.2575 -91.8203125 15.875 C-89 15 -89 15 -87 15 C-86.67 14.34 -86.34 13.68 -86 13 C-85.34 13.33 -84.68 13.66 -84 14 C-84 13.34 -84 12.68 -84 12 C-83.00097656 11.80664062 -82.00195312 11.61328125 -80.97265625 11.4140625 C-79.68230469 11.15367188 -78.39195312 10.89328125 -77.0625 10.625 C-75.77472656 10.36976562 -74.48695313 10.11453125 -73.16015625 9.8515625 C-72.11730469 9.57054687 -71.07445312 9.28953125 -70 9 C-69.67 8.34 -69.34 7.68 -69 7 C-68.34 7 -67.68 7 -67 7 C-67.37125 6.071875 -67.7425 5.14375 -68.125 4.1875 C-68.558125 2.6096875 -68.558125 2.6096875 -69 1 C-67 -2 -67 -2 -64.6015625 -2.6953125 C-43.60628061 -5.72612747 -20.23245112 -7.84413212 0 0 Z " fill="#22A3DD" transform="translate(261,31)"/>
<path d="M0 0 C0.41507812 0.35191406 0.83015625 0.70382813 1.2578125 1.06640625 C10.90839847 8.79898873 21.86777815 13.77419186 34 16 C35.01835938 16.20367187 36.03671875 16.40734375 37.0859375 16.6171875 C48.0014186 18.50989562 58.95907923 18.19496328 70 18 C70 18.66 70 19.32 70 20 C60.71913644 23.08576936 51.73468174 25.76082387 42 27 C40.63404078 27.19740663 39.26816045 27.39535971 37.90234375 27.59375 C22.76381601 29.69952327 9.75998151 27.52599558 -5 24 C-5 23.67 -5 23.34 -5 23 C-2.36 23 0.28 23 3 23 C3 23.66 3 24.32 3 25 C4.03060547 24.98259766 4.03060547 24.98259766 5.08203125 24.96484375 C5.98308594 24.95582031 6.88414063 24.94679687 7.8125 24.9375 C8.70582031 24.92589844 9.59914063 24.91429687 10.51953125 24.90234375 C13 25 13 25 16 26 C18.56634861 26.22718496 21.11678107 26.41608184 23.6875 26.5625 C24.38939453 26.60568359 25.09128906 26.64886719 25.81445312 26.69335938 C27.54275206 26.7991736 29.2713511 26.90006581 31 27 C32.07174763 23.34811918 31.76411467 20.73567172 31 17 C30.484375 17.20625 29.96875 17.4125 29.4375 17.625 C23.89784982 18.47725387 18.76509227 15.55687878 14 13 C14 13.66 14 14.32 14 15 C12.68 15.33 11.36 15.66 10 16 C9.67 14.02 9.34 12.04 9 10 C8.34 10 7.68 10 7 10 C7 9.01 7 8.02 7 7 C5.68 7 4.36 7 3 7 C0.58152803 4.49515403 0 3.53986194 0 0 Z " fill="#0F96EA" transform="translate(73,176)"/>
<path d="M0 0 C0.99 0.33 1.98 0.66 3 1 C6.96328604 15.40229839 6.11976069 29.43309391 0 43 C-1.66796875 45.41796875 -1.66796875 45.41796875 -3 47 C-4.125 39.25 -4.125 39.25 -3 37 C-2.34 37 -1.68 37 -1 37 C-0.34 34.69 0.32 32.38 1 30 C0.34 30 -0.32 30 -1 30 C-1.66 29.34 -2.32 28.68 -3 28 C-3.78375 28.495 -4.5675 28.99 -5.375 29.5 C-8 31 -8 31 -10 31 C-10.12375 31.598125 -10.2475 32.19625 -10.375 32.8125 C-11 35 -11 35 -13 38 C-13.66 38 -14.32 38 -15 38 C-15.495 40.475 -15.495 40.475 -16 43 C-18.475 43.495 -18.475 43.495 -21 44 C-18.88325333 40.17357332 -16.69165924 36.52254299 -14.1875 32.9375 C-7.98778904 23.66940418 -3.60123328 14.43305307 -1.5078125 3.44921875 C-1 1 -1 1 0 0 Z " fill="#045EF9" transform="translate(316,81)"/>
<path d="M0 0 C0.94101563 0.07863281 1.88203125 0.15726563 2.8515625 0.23828125 C5.375 0.6875 5.375 0.6875 8.375 2.6875 C7.80610912 5.98706712 6.9759662 7.57204749 4.375 9.6875 C2.10546875 10.34765625 2.10546875 10.34765625 -0.4375 10.75 C-4.34113352 11.38547522 -7.88936076 12.38291465 -11.625 13.6875 C-12.55699219 13.99429688 -13.48898438 14.30109375 -14.44921875 14.6171875 C-23.652343 17.6555996 -32.72574943 20.76941956 -41.54296875 24.8046875 C-44.51286191 26.06396678 -47.50201786 26.89014286 -50.625 27.6875 C-50.625 26.3675 -50.625 25.0475 -50.625 23.6875 C-48.645 23.6875 -46.665 23.6875 -44.625 23.6875 C-44.625 23.0275 -44.625 22.3675 -44.625 21.6875 C-42.6679132 21.01718281 -40.70928887 20.35135317 -38.75 19.6875 C-37.65945312 19.31625 -36.56890625 18.945 -35.4453125 18.5625 C-32.625 17.6875 -32.625 17.6875 -30.625 17.6875 C-30.295 17.0275 -29.965 16.3675 -29.625 15.6875 C-28.965 16.0175 -28.305 16.3475 -27.625 16.6875 C-27.625 16.0275 -27.625 15.3675 -27.625 14.6875 C-26.62597656 14.49414062 -25.62695312 14.30078125 -24.59765625 14.1015625 C-23.30730469 13.84117188 -22.01695312 13.58078125 -20.6875 13.3125 C-19.39972656 13.05726562 -18.11195313 12.80203125 -16.78515625 12.5390625 C-15.74230469 12.25804687 -14.69945312 11.97703125 -13.625 11.6875 C-13.295 11.0275 -12.965 10.3675 -12.625 9.6875 C-11.965 9.6875 -11.305 9.6875 -10.625 9.6875 C-10.99625 8.759375 -11.3675 7.83125 -11.75 6.875 C-12.03875 5.823125 -12.3275 4.77125 -12.625 3.6875 C-10.625 0.6875 -10.625 0.6875 -8.3515625 -0.01953125 C-5.47377925 -0.32874865 -2.88092065 -0.26587009 0 0 Z " fill="#0CADF2" transform="translate(204.625,28.3125)"/>
<path d="M0 0 C0 0.66 0 1.32 0 2 C-0.99 2 -1.98 2 -3 2 C-3.33 2.99 -3.66 3.98 -4 5 C-8.30542688 7.87028459 -11.74740113 9.64982674 -17 10 C-19.125 9.5625 -19.125 9.5625 -21 9 C-22.32 9 -23.64 9 -25 9 C-25.33 9.99 -25.66 10.98 -26 12 C-30.455 12.495 -30.455 12.495 -35 13 C-35.33 13.99 -35.66 14.98 -36 16 C-37.98 16 -39.96 16 -42 16 C-42 16.99 -42 17.98 -42 19 C-44.44751435 19.06798651 -46.57438288 19.12356626 -48.9375 18.4375 C-51.10204409 17.84105826 -51.10204409 17.84105826 -53.69921875 18.5 C-57.24674034 19.03737605 -60.30784734 18.89009565 -63.875 18.5625 C-65.02742188 18.46066406 -66.17984375 18.35882813 -67.3671875 18.25390625 C-68.23601562 18.17011719 -69.10484375 18.08632812 -70 18 C-70 17.34 -70 16.68 -70 16 C-68.81748657 15.81993408 -68.81748657 15.81993408 -67.61108398 15.63623047 C-46.12240763 12.32164541 -25.22892634 8.13962106 -4.66796875 0.8828125 C-2 0 -2 0 0 0 Z " fill="#0573F3" transform="translate(188,197)"/>
<path d="M0 0 C0.33 0.66 0.66 1.32 1 2 C-1.13922111 8.41766332 -4.38784849 15.31102051 -9.125 20.1875 C-11.82790896 24.24186344 -11.81429851 28.21818675 -12 33 C-12.99 33 -13.98 33 -15 33 C-15.144375 33.78375 -15.28875 34.5675 -15.4375 35.375 C-16 38 -16 38 -17 40 C-17.66 40 -18.32 40 -19 40 C-19.33 44.95 -19.66 49.9 -20 55 C-20.66 54.67 -21.32 54.34 -22 54 C-21.65342128 33.55185578 -13.28786375 15.38145 0 0 Z " fill="#1EE6EC" transform="translate(59,107)"/>
<path d="M0 0 C3.125 2.0625 3.125 2.0625 5 4 C3.56208484 3.85831863 2.1246763 3.71148957 0.6875 3.5625 C-0.11300781 3.48128906 -0.91351562 3.40007813 -1.73828125 3.31640625 C-4 3 -4 3 -7 2 C-9.73183699 3.15574011 -9.73183699 3.15574011 -12 5 C-12 5.99 -12 6.98 -12 8 C-12.66 8 -13.32 8 -14 8 C-13.67 8.99 -13.34 9.98 -13 11 C-13.9375 14.1875 -13.9375 14.1875 -15 17 C-15.33 17 -15.66 17 -16 17 C-16 14.69 -16 12.38 -16 10 C-19.24983135 11.08784968 -19.24983135 11.08784968 -22 13 C-22.75966558 20.19814268 -22.20677631 25.08422082 -18 31 C-18.66 31 -19.32 31 -20 31 C-20 30.34 -20 29.68 -20 29 C-20.66 29 -21.32 29 -22 29 C-25.51966071 23.57385641 -26.09513591 18.27699848 -25 12 C-22.34142411 6.50926423 -18.25800946 2.92111637 -13 0 C-8.58099575 -1.47300142 -4.52345893 -0.96519665 0 0 Z " fill="#19DCEB" transform="translate(828,45)"/>
<path d="M0 0 C0 0.66 0 1.32 0 2 C-0.639375 2.12375 -1.27875 2.2475 -1.9375 2.375 C-2.618125 2.58125 -3.29875 2.7875 -4 3 C-4.33 3.66 -4.66 4.32 -5 5 C-3.69853027 4.96447021 -2.39706055 4.92894043 -1.05615234 4.89233398 C3.78550335 4.76168416 8.62732768 4.63862388 13.46923828 4.51782227 C15.56239075 4.46454614 17.65549232 4.40922872 19.74853516 4.35180664 C22.76193266 4.26949293 25.77543861 4.19459027 28.7890625 4.12109375 C30.18628036 4.08054115 30.18628036 4.08054115 31.61172485 4.03916931 C36.21573264 3.93408395 40.46743862 4.02592567 45 5 C41.30022435 7.4665171 38.45066297 7.30529084 34.16796875 7.30078125 C33.38728531 7.30619934 32.60660187 7.31161743 31.80226135 7.31719971 C29.26383735 7.32870022 26.72592583 7.32231089 24.1875 7.3125 C22.90135803 7.3117598 22.90135803 7.3117598 21.5892334 7.31100464 C-11.49517924 7.25241038 -11.49517924 7.25241038 -20 3 C-20 2.34 -20 1.68 -20 1 C-13.30386804 0.202163 -6.74233419 -0.12910853 0 0 Z " fill="#1982D2" transform="translate(117,214)"/>
<path d="M0 0 C6.28223052 5.07152228 9.3081244 12.69499624 10.5625 20.5 C9.49145717 27.16426652 6.29921228 33.68212332 1 38 C-0.625 36.375 -0.625 36.375 -2 34 C-1.1875 30.75 -1.1875 30.75 0 28 C1.32 28.66 2.64 29.32 4 30 C8.01676824 25.14640505 7.28136159 19.95027665 7 14 C5.68 13.34 4.36 12.68 3 12 C3 10.35 3 8.7 3 7 C2.34 7 1.68 7 1 7 C0.566875 6.21625 0.13375 5.4325 -0.3125 4.625 C-2.26798281 1.58313785 -3.60211849 1.01018099 -7 0 C-7 -0.66 -7 -1.32 -7 -2 C-15.415 -1.505 -15.415 -1.505 -24 -1 C-23 -3 -23 -3 -21.1953125 -3.60546875 C-13.47741203 -4.99249357 -6.84071597 -3.9272935 0 0 Z " fill="#24DDE2" transform="translate(313,32)"/>
<path d="M0 0 C0.62261719 0.52787109 0.62261719 0.52787109 1.2578125 1.06640625 C10.94276326 8.8265237 21.85273357 13.6846821 34 16 C35.05316406 16.20367187 36.10632813 16.40734375 37.19140625 16.6171875 C39.79094845 17.10190418 42.39197781 17.56361834 45 18 C45 18.33 45 18.66 45 19 C40.38 19.33 35.76 19.66 31 20 C31 19.01 31 18.02 31 17 C30.484375 17.20625 29.96875 17.4125 29.4375 17.625 C23.89784982 18.47725387 18.76509227 15.55687878 14 13 C14 13.66 14 14.32 14 15 C12.68 15.33 11.36 15.66 10 16 C9.67 14.02 9.34 12.04 9 10 C8.34 10 7.68 10 7 10 C7 9.01 7 8.02 7 7 C5.68 7 4.36 7 3 7 C0.58152803 4.49515403 0 3.53986194 0 0 Z " fill="#26A3E4" transform="translate(73,176)"/>
<path d="M0 0 C0.87454834 0.00523682 1.74909668 0.01047363 2.65014648 0.01586914 C3.59438477 0.0190918 4.53862305 0.02231445 5.51147461 0.02563477 C6.50469727 0.03401367 7.49791992 0.04239258 8.52124023 0.05102539 C9.51833008 0.05553711 10.51541992 0.06004883 11.54272461 0.06469727 C14.01478872 0.07652532 16.48673541 0.0930069 18.95874023 0.11352539 C18.95874023 0.77352539 18.95874023 1.43352539 18.95874023 2.11352539 C19.61874023 2.11352539 20.27874023 2.11352539 20.95874023 2.11352539 C20.95874023 2.77352539 20.95874023 3.43352539 20.95874023 4.11352539 C14.63244454 5.01728192 9.28503593 5.01728192 2.95874023 4.11352539 C2.95874023 4.77352539 2.95874023 5.43352539 2.95874023 6.11352539 C-1.33125977 6.11352539 -5.62125977 6.11352539 -10.04125977 6.11352539 C-10.37125977 4.79352539 -10.70125977 3.47352539 -11.04125977 2.11352539 C-8.99047852 1.88566081 -6.93969727 1.65779622 -4.88891602 1.42993164 C-2.61527716 1.040577 -2.36388463 0.13146829 0 0 Z " fill="#04A7F7" transform="translate(227.041259765625,26.886474609375)"/>
<path d="M0 0 C-2.72178353 1.81452235 -3.95051998 2.34653999 -7 3 C-15.97182853 5.25012313 -24.27747441 8.29708649 -32.6875 12.125 C-36.40305193 13.8042708 -40.05169874 14.99192308 -44 16 C-44 14.68 -44 13.36 -44 12 C-42.02 12 -40.04 12 -38 12 C-38 11.34 -38 10.68 -38 10 C-36.0429132 9.32968281 -34.08428887 8.66385317 -32.125 8 C-31.03445312 7.62875 -29.94390625 7.2575 -28.8203125 6.875 C-26 6 -26 6 -24 6 C-23.67 5.34 -23.34 4.68 -23 4 C-22.34 4.33 -21.68 4.66 -21 5 C-21 4.34 -21 3.68 -21 3 C-18.81462633 2.49078672 -16.62657569 1.99305563 -14.4375 1.5 C-12.61025391 1.08234375 -12.61025391 1.08234375 -10.74609375 0.65625 C-7.07777293 0.01362446 -3.71497397 -0.11474823 0 0 Z " fill="#1BAEE5" transform="translate(198,40)"/>
<path d="M0 0 C2.5 1.1875 2.5 1.1875 5 3 C5.3125 5.6875 5.3125 5.6875 5 8 C5.66 8.33 6.32 8.66 7 9 C7.625 11.5625 7.625 11.5625 8 14 C8.969375 14.12375 9.93875 14.2475 10.9375 14.375 C11.948125 14.58125 12.95875 14.7875 14 15 C14.33 15.66 14.66 16.32 15 17 C15.69867188 16.98839844 16.39734375 16.97679688 17.1171875 16.96484375 C18.02726562 16.95582031 18.93734375 16.94679688 19.875 16.9375 C21.23238281 16.92009766 21.23238281 16.92009766 22.6171875 16.90234375 C25 17 25 17 27 18 C27.94875 17.67 28.8975 17.34 29.875 17 C32.95714382 16.01371398 34.06577811 15.87145312 37 17 C31.07998541 20.58316672 24.99745554 21.82628969 18.203125 20.421875 C15.01656523 19.48248455 11.97365829 18.48682915 9 17 C9 16.34 9 15.68 9 15 C7.68 14.34 6.36 13.68 5 13 C5 12.34 5 11.68 5 11 C4.34 11 3.68 11 3 11 C-0.51460674 4.27640449 -0.51460674 4.27640449 -1 1 C-0.67 0.67 -0.34 0.34 0 0 Z " fill="#1993DE" transform="translate(275,55)"/>
<path d="M0 0 C0.99 0.33 1.98 0.66 3 1 C4.74048985 7.32481581 5.21695604 13.47450541 5.25 20 C5.26353516 21.13103149 5.26353516 21.13103149 5.27734375 22.28491211 C5.24757847 27.75242153 5.24757847 27.75242153 3 30 C3 24.06 3 18.12 3 12 C0.69 12.33 -1.62 12.66 -4 13 C-3.52511102 11.01980257 -3.04497141 9.04086365 -2.5625 7.0625 C-2.29566406 5.96035156 -2.02882813 4.85820313 -1.75390625 3.72265625 C-1 1 -1 1 0 0 Z " fill="#155DDA" transform="translate(316,81)"/>
<path d="M0 0 C0 0.66 0 1.32 0 2 C-0.99 2 -1.98 2 -3 2 C-3.33 3.32 -3.66 4.64 -4 6 C-4.33 5.34 -4.66 4.68 -5 4 C-5.99 4 -6.98 4 -8 4 C-8.2475 4.61875 -8.495 5.2375 -8.75 5.875 C-10.23250486 8.39525827 -11.28387064 9.01231659 -14 10 C-14.99 10 -15.98 10 -17 10 C-17.2475 10.61875 -17.495 11.2375 -17.75 11.875 C-19.27389015 14.46561326 -20.13453767 15.12444207 -23 16 C-26.25 15.625 -26.25 15.625 -29 15 C-26.8517335 12.6786962 -24.73841962 11.12796225 -21.98046875 9.58984375 C-21.20509766 9.15736328 -20.42972656 8.72488281 -19.63085938 8.27929688 C-18.82455078 7.83650391 -18.01824219 7.39371094 -17.1875 6.9375 C-16.39279297 6.49083984 -15.59808594 6.04417969 -14.77929688 5.58398438 C-4.68806054 0 -4.68806054 0 0 0 Z " fill="#04CAF7" transform="translate(145,45)"/>
<path d="M0 0 C0.94875 0.185625 1.8975 0.37125 2.875 0.5625 C5.89868793 1.28686632 5.89868793 1.28686632 8 0 C8.33 0.66 8.66 1.32 9 2 C11.31 2 13.62 2 16 2 C11.67133659 4.30800909 7.23727732 5.38168069 2.5 6.5625 C1.60958008 6.78574951 0.71916016 7.00899902 -0.19824219 7.23901367 C-6.81447189 8.84027565 -13.1777567 9.84747017 -20 10 C-19.67 9.01 -19.34 8.02 -19 7 C-17.700625 7.020625 -16.40125 7.04125 -15.0625 7.0625 C-13.70834367 7.08399454 -12.35243917 7.07148199 -11 7 C-10.67 6.67 -10.34 6.34 -10 6 C-7.32941149 5.85884839 -4.67567762 5.95752893 -2 6 C-1.34 4.02 -0.68 2.04 0 0 Z " fill="#0C70EB" transform="translate(182,209)"/>
<path d="M0 0 C1.64574566 -0.02688151 3.29161413 -0.04634123 4.9375 -0.0625 C5.85402344 -0.07410156 6.77054687 -0.08570313 7.71484375 -0.09765625 C10 0 10 0 11 1 C12.34747084 1.23075082 13.70377565 1.41153063 15.0625 1.5625 C16.361875 1.706875 17.66125 1.85125 19 2 C18.67 2.99 18.34 3.98 18 5 C13.82827843 5.9734017 9.66043199 6.35133407 5.40234375 6.71875 C3.19027281 6.97772416 1.14333568 7.40600397 -1 8 C-0.67 5.36 -0.34 2.72 0 0 Z " fill="#029EFB" transform="translate(105,195)"/>
<path d="M0 0 C0.66 0.33 1.32 0.66 2 1 C1.34 1.99 0.68 2.98 0 4 C-0.66 4 -1.32 4 -2 4 C-2.33 4.99 -2.66 5.98 -3 7 C-5.30824842 7.71023028 -7.58303983 8.01261364 -9.96875 8.375 C-10.6390625 8.58125 -11.309375 8.7875 -12 9 C-12.33 9.99 -12.66 10.98 -13 12 C-13.99 12.33 -14.98 12.66 -16 13 C-15.67 13.99 -15.34 14.98 -15 16 C-17 17 -17 17 -19.125 16.3125 C-22.93115599 15.89878739 -24.82642319 17.25590624 -28.03515625 19.1875 C-30.46620905 20.19278625 -31.53459549 19.72336488 -34 19 C-32.93471069 18.45641846 -32.93471069 18.45641846 -31.84790039 17.90185547 C-28.58316903 16.23189849 -25.3228378 14.5535175 -22.0625 12.875 C-20.94552734 12.30523437 -19.82855469 11.73546875 -18.67773438 11.1484375 C-12.16876208 7.78896793 -5.97679487 4.23972542 0 0 Z " fill="#1762DA" transform="translate(246,167)"/>
<path d="M0 0 C2.64 0 5.28 0 8 0 C8 0.66 8 1.32 8 2 C9.03060547 1.98259766 9.03060547 1.98259766 10.08203125 1.96484375 C10.98308594 1.95582031 11.88414063 1.94679687 12.8125 1.9375 C13.70582031 1.92589844 14.59914063 1.91429687 15.51953125 1.90234375 C18 2 18 2 21 3 C22.39615108 3.09137566 23.79617609 3.13065667 25.1953125 3.1328125 C25.99324219 3.13410156 26.79117188 3.13539063 27.61328125 3.13671875 C28.44214844 3.13285156 29.27101563 3.12898437 30.125 3.125 C30.96160156 3.12886719 31.79820313 3.13273438 32.66015625 3.13671875 C36.64715756 3.53149953 36.64715756 3.53149953 40 2 C42.35313555 1.92728259 44.70833668 1.91629132 47.0625 1.9375 C48.35285156 1.94652344 49.64320312 1.95554688 50.97265625 1.96484375 C51.97167969 1.97644531 52.97070312 1.98804688 54 2 C54 2.33 54 2.66 54 3 C50.25278428 3.54226448 46.50202743 4.05469014 42.75 4.5625 C41.70585938 4.71396484 40.66171875 4.86542969 39.5859375 5.02148438 C28.7499311 6.45959634 18.83348633 5.48437639 8.25 2.9375 C7.445625 2.75123047 6.64125 2.56496094 5.8125 2.37304688 C3.87324413 1.92286248 1.93633893 1.46256986 0 1 C0 0.67 0 0.34 0 0 Z " fill="#22B8E5" transform="translate(68,199)"/>
<path d="M0 0 C0.763125 0.0825 1.52625 0.165 2.3125 0.25 C-1.2940331 4.93505824 -5.02590822 8.27066483 -9.875 11.625 C-10.50341797 12.07488281 -11.13183594 12.52476562 -11.77929688 12.98828125 C-16.41410999 16.25 -16.41410999 16.25 -18.6875 16.25 C-18.6875 16.91 -18.6875 17.57 -18.6875 18.25 C-20.6675 18.91 -22.6475 19.57 -24.6875 20.25 C-24.3575 18.93 -24.0275 17.61 -23.6875 16.25 C-22.6975 16.58 -21.7075 16.91 -20.6875 17.25 C-20.6875 15.93 -20.6875 14.61 -20.6875 13.25 C-19.90375 13.311875 -19.12 13.37375 -18.3125 13.4375 C-17.44625 13.375625 -16.58 13.31375 -15.6875 13.25 C-15.0275 12.26 -14.3675 11.27 -13.6875 10.25 C-12.6975 10.25 -11.7075 10.25 -10.6875 10.25 C-10.6875 9.59 -10.6875 8.93 -10.6875 8.25 C-9.6975 7.92 -8.7075 7.59 -7.6875 7.25 C-6.54945831 5.54293746 -5.4305569 3.8217615 -4.375 2.0625 C-2.6875 0.25 -2.6875 0.25 0 0 Z " fill="#135EDA" transform="translate(281.6875,164.75)"/>
<path d="M0 0 C4.50579596 5.10656875 6.29354385 9.19100607 5.875 16 C5.19675164 21.19210814 3.64660979 24.92930286 -0.59765625 28.25 C-2.02785956 29.22375544 -3.51040275 30.11978344 -5 31 C-5.66 30.67 -6.32 30.34 -7 30 C-6.34 29.34 -5.68 28.68 -5 28 C-4.01 28 -3.02 28 -2 28 C-2.33 27.01 -2.66 26.02 -3 25 C-1.37660195 23.29115995 0.29319053 21.62553283 2 20 C2.66 20 3.32 20 4 20 C3.88529863 18.24929483 3.75780972 16.49942464 3.625 14.75 C3.55539062 13.77546875 3.48578125 12.8009375 3.4140625 11.796875 C3.01089652 9.07360292 2.47210492 7.30876887 1 5 C0.34 4.67 -0.32 4.34 -1 4 C-0.67 2.68 -0.34 1.36 0 0 Z " fill="#21B8E2" transform="translate(833,49)"/>
<path d="M0 0 C0.33 1.32 0.66 2.64 1 4 C0.01 4 -0.98 4 -2 4 C-2.20238281 4.53753906 -2.40476562 5.07507813 -2.61328125 5.62890625 C-4.93313524 9.59552983 -8.5182968 12.44142723 -11.91992188 15.49023438 C-13.77230763 17.18216059 -13.77230763 17.18216059 -16 20 C-16.02625762 22.81523038 -16.02625762 22.81523038 -15 25 C-19.95 25.495 -19.95 25.495 -25 26 C-23.37660195 24.29115995 -21.70680947 22.62553283 -20 21 C-19.34 21 -18.68 21 -18 21 C-17.79117187 20.46246094 -17.58234375 19.92492187 -17.3671875 19.37109375 C-15.47274844 16.08559516 -12.83699327 13.66718418 -10.125 11.0625 C-6.48108931 7.53827981 -3.08386483 4.04477923 0 0 Z " fill="#1F5FCB" transform="translate(294,125)"/>
<path d="M0 0 C-0.33 1.32 -0.66 2.64 -1 4 C-8.61399923 6.19386419 -15.16296501 5.89635331 -23 5 C-23 4.34 -23 3.68 -23 3 C-19.72971069 2.49639777 -16.45868619 1.99774046 -13.1875 1.5 C-12.25873047 1.35691406 -11.32996094 1.21382812 -10.37304688 1.06640625 C-9.48037109 0.93105469 -8.58769531 0.79570312 -7.66796875 0.65625 C-6.84578857 0.53056641 -6.0236084 0.40488281 -5.17651367 0.27539062 C-3 0 -3 0 0 0 Z " fill="#168EDB" transform="translate(141,210)"/>
<path d="M0 0 C0 3.55376308 -0.82884918 4.57072053 -2.75 7.5 C-6.9069857 14.21210693 -9.59139443 21.23174948 -11 29 C-11.33 29 -11.66 29 -12 29 C-12.33 26.03 -12.66 23.06 -13 20 C-12.01 19.67 -11.02 19.34 -10 19 C-9.81824219 17.94039062 -9.63648437 16.88078125 -9.44921875 15.7890625 C-9.1959766 14.40092035 -8.94203383 13.01290588 -8.6875 11.625 C-8.56955078 10.92632812 -8.45160156 10.22765625 -8.33007812 9.5078125 C-7.98201011 7.65144974 -7.49747273 5.82201946 -7 4 C-4 2 -4 2 -2 2 C-1.34 1.34 -0.68 0.68 0 0 Z " fill="#29CFE4" transform="translate(79,115)"/>
<path d="M0 0 C0.66 0.33 1.32 0.66 2 1 C1 4 1 4 -0.875 5.1875 C-3 6 -3 6 -6 6 C-8.12046792 9.53411321 -8.53199289 12.94393835 -9 17 C-8.34 17.33 -7.68 17.66 -7 18 C-8.64169528 20.02054804 -10.30911778 22.02043058 -12 24 C-12.33 24 -12.66 24 -13 24 C-13.36351185 17.0932748 -12.24791335 12.50674482 -8.4375 6.5625 C-7.7259375 5.7890625 -7.7259375 5.7890625 -7 5 C-6.34 5 -5.68 5 -5 5 C-5 4.34 -5 3.68 -5 3 C-4.34 3 -3.68 3 -3 3 C-3 2.34 -3 1.68 -3 1 C-2.01 0.67 -1.02 0.34 0 0 Z " fill="#18D0EC" transform="translate(287,31)"/>
<path d="M0 0 C2.56377118 3.84565677 2.5099662 5.41030416 2 10 C-0.06309703 15.34268156 -2.48721135 20.32291295 -7 24 C-8.625 22.375 -8.625 22.375 -10 20 C-9.1875 16.75 -9.1875 16.75 -8 14 C-6.68 14.66 -5.36 15.32 -4 16 C-0.18211975 11.18615099 -0.29932075 5.89352231 0 0 Z " fill="#18A4E4" transform="translate(321,46)"/>
<path d="M0 0 C0 0.66 0 1.32 0 2 C-0.639375 2.12375 -1.27875 2.2475 -1.9375 2.375 C-2.618125 2.58125 -3.29875 2.7875 -4 3 C-4.33 3.66 -4.66 4.32 -5 5 C-7.12534659 4.85930804 -9.25027529 4.71229079 -11.375 4.5625 C-12.55835937 4.48128906 -13.74171875 4.40007812 -14.9609375 4.31640625 C-18 4 -18 4 -20 3 C-20 2.34 -20 1.68 -20 1 C-13.30386804 0.202163 -6.74233419 -0.12910853 0 0 Z " fill="#1996E2" transform="translate(117,214)"/>
<path d="M0 0 C0.99 0.66 1.98 1.32 3 2 C2.6130131 4.24452405 2.08035336 5.87054181 0.875 7.8125 C-2.11632977 9.70700885 -4.67099403 8.69092577 -8 8 C-7.01 7.67 -6.02 7.34 -5 7 C-5.33 5.68 -5.66 4.36 -6 3 C-7.32 3 -8.64 3 -10 3 C-10 2.34 -10 1.68 -10 1 C-6.87293041 -0.5635348 -3.42017557 -0.39958487 0 0 Z " fill="#02ABFA" transform="translate(210,29)"/>
<path d="M0 0 C0.33 0.66 0.66 1.32 1 2 C3.97 2 6.94 2 10 2 C10 2.99 10 3.98 10 5 C12.31 5 14.62 5 17 5 C17 5.33 17 5.66 17 6 C9.74 6 2.48 6 -5 6 C-4.67 5.01 -4.34 4.02 -4 3 C-2.68 3 -1.36 3 0 3 C0 2.01 0 1.02 0 0 Z " fill="#0596F6" transform="translate(117,213)"/>
<path d="M0 0 C-0.33 0.99 -0.66 1.98 -1 3 C-2.0725 3.103125 -3.145 3.20625 -4.25 3.3125 C-7.9680446 3.99414151 -9.15139351 4.76180918 -12 7 C-12.99 6.67 -13.98 6.34 -15 6 C-15.99 6.495 -15.99 6.495 -17 7 C-19.6723621 7.13415472 -22.32250488 7.04318541 -25 7 C-18.3214985 2.54766567 -8.04775329 0 0 0 Z " fill="#15ADE6" transform="translate(192,30)"/>
<path d="M0 0 C1.21236328 0.01353516 1.21236328 0.01353516 2.44921875 0.02734375 C3.37154297 0.04474609 3.37154297 0.04474609 4.3125 0.0625 C3.9825 1.3825 3.6525 2.7025 3.3125 4.0625 C1.3325 4.0625 -0.6475 4.0625 -2.6875 4.0625 C-2.6875 5.0525 -2.6875 6.0425 -2.6875 7.0625 C-4.3375 7.0625 -5.9875 7.0625 -7.6875 7.0625 C-8.6875 4.0625 -8.6875 4.0625 -7.6875 1.0625 C-4.80538698 0.10179566 -2.98899956 -0.04331883 0 0 Z " fill="#0C84E8" transform="translate(148.6875,208.9375)"/>
<path d="M0 0 C-3.74525799 3.74525799 -7.98270909 3.68909949 -13 4 C-13.33 4.99 -13.66 5.98 -14 7 C-18.62 7 -23.24 7 -28 7 C-23.09062875 4.54531438 -18.15493522 3.24910209 -12.875 1.8125 C-11.86050781 1.52697266 -10.84601563 1.24144531 -9.80078125 0.94726562 C-8.83269531 0.68236328 -7.86460937 0.41746094 -6.8671875 0.14453125 C-5.53856689 -0.22128052 -5.53856689 -0.22128052 -4.18310547 -0.59448242 C-2 -1 -2 -1 0 0 Z " fill="#2281D8" transform="translate(176,202)"/>
<path d="M0 0 C2.66666667 2 5.33333333 4 8 6 C8.74765625 6.51949219 9.4953125 7.03898438 10.265625 7.57421875 C10.83796875 8.04472656 11.4103125 8.51523438 12 9 C12 9.66 12 10.32 12 11 C12.99 11.33 13.98 11.66 15 12 C14.67 12.99 14.34 13.98 14 15 C11.9375 15.6875 11.9375 15.6875 10 16 C9.67 14.02 9.34 12.04 9 10 C8.34 10 7.68 10 7 10 C7 9.01 7 8.02 7 7 C5.68 7 4.36 7 3 7 C0.58152803 4.49515403 0 3.53986194 0 0 Z " fill="#03B6F7" transform="translate(73,176)"/>
<path d="M0 0 C1 2 1 2 0.51171875 3.83984375 C0.10373047 4.87818359 0.10373047 4.87818359 -0.3125 5.9375 C-0.70888672 6.97197266 -0.70888672 6.97197266 -1.11328125 8.02734375 C-2 10 -2 10 -4 13 C-4.66 13 -5.32 13 -6 13 C-6.33 14.65 -6.66 16.3 -7 18 C-8.65 18.33 -10.3 18.66 -12 19 C-8.93918838 13.46699439 -5.54841781 8.23138169 -2 3 C-1.34 2.01 -0.68 1.02 0 0 Z " fill="#1261D8" transform="translate(307,106)"/>
<path d="M0 0 C0 0.99 0 1.98 0 3 C-2 5 -2 5 -4 7 C-6.26207287 10.78274889 -6.26207287 10.78274889 -7 15 C-9.64 15.99 -12.28 16.98 -15 18 C-13.34890181 13.93122232 -10.46404222 11.02285879 -7.5 7.875 C-7.00113281 7.33746094 -6.50226563 6.79992187 -5.98828125 6.24609375 C-4.02214504 4.13236554 -2.04136111 2.04136111 0 0 Z " fill="#23D6DE" transform="translate(75,89)"/>
<path d="M0 0 C0.33 1.32 0.66 2.64 1 4 C-0.65 4.33 -2.3 4.66 -4 5 C-4 5.66 -4 6.32 -4 7 C-8.75 8.125 -8.75 8.125 -11 7 C-11.33 7.99 -11.66 8.98 -12 10 C-13.32 9.67 -14.64 9.34 -16 9 C-14.41906946 7.87162591 -12.83515284 6.74743482 -11.25 5.625 C-10.36828125 4.99851562 -9.4865625 4.37203125 -8.578125 3.7265625 C-3.01357466 0 -3.01357466 0 0 0 Z " fill="#19CAE7" transform="translate(116,60)"/>
<path d="M0 0 C-0.66053106 3.47181568 -2.04925138 6.05137728 -3.875 9.0625 C-4.38804687 9.91972656 -4.90109375 10.77695313 -5.4296875 11.66015625 C-6.81271566 13.72093702 -8.17506704 15.3335193 -10 17 C-10 13 -10 13 -8.5625 11.5 C-8.046875 11.005 -7.53125 10.51 -7 10 C-6.28552357 7.89667109 -6.28552357 7.89667109 -6 6 C-6.66 6 -7.32 6 -8 6 C-6.98565881 3.46414701 -6.34981128 2.21863205 -4 0.75 C-2 0 -2 0 0 0 Z " fill="#105ADD" transform="translate(313,128)"/>
<path d="M0 0 C-0.969375 0.61875 -1.93875 1.2375 -2.9375 1.875 C-6.02835362 3.65678846 -6.02835362 3.65678846 -7 6 C-7.58007812 5.98839844 -8.16015625 5.97679687 -8.7578125 5.96484375 C-13.2998246 5.91237826 -17.52713569 6.08248937 -22 7 C-18.80059883 4.86706589 -15.54017228 3.43995103 -12 2 C-11.3090625 1.70480469 -10.618125 1.40960938 -9.90625 1.10546875 C-9.2153125 0.82316406 -8.524375 0.54085937 -7.8125 0.25 C-7.17957031 -0.01296875 -6.54664063 -0.2759375 -5.89453125 -0.546875 C-3.61447303 -1.09220851 -2.20288622 -0.72289836 0 0 Z " fill="#17B2E5" transform="translate(167,38)"/>
<path d="M0 0 C1.65 0.33 3.3 0.66 5 1 C5.3125 3.3125 5.3125 3.3125 5 6 C2.75 7.875 2.75 7.875 0 9 C-2.3125 8.6875 -2.3125 8.6875 -4 8 C-2.66666667 5.33333333 -1.33333333 2.66666667 0 0 Z " fill="#029DF8" transform="translate(826,71)"/>
<path d="M0 0 C2.64 0 5.28 0 8 0 C3.56080905 4.70031983 -1.11798269 8.28522278 -7 11 C-6.67 9.68 -6.34 8.36 -6 7 C-5.01 7 -4.02 7 -3 7 C-3 6.34 -3 5.68 -3 5 C-2.34 4.67 -1.68 4.34 -1 4 C-0.34786708 1.97536745 -0.34786708 1.97536745 0 0 Z " fill="#14C6EA" transform="translate(115,74)"/>
<path d="M0 0 C1.6852084 4.07679159 0.16939007 6.83075593 -1.4375 10.75 C-1.91058594 11.92046875 -2.38367188 13.0909375 -2.87109375 14.296875 C-3.24363281 15.18890625 -3.61617188 16.0809375 -4 17 C-4.33 17 -4.66 17 -5 17 C-6.125 9.25 -6.125 9.25 -5 7 C-4.34 7 -3.68 7 -3 7 C-2.690625 6.21625 -2.38125 5.4325 -2.0625 4.625 C-1 2 -1 2 0 0 Z " fill="#115ADD" transform="translate(318,111)"/>
<path d="M0 0 C0.66 0.33 1.32 0.66 2 1 C0.34135385 4.4094393 -0.59572317 5.80198686 -4.0625 7.5 C-7.59834918 9.30554 -7.68294762 10.42514353 -9 14 C-11.0546875 14.6484375 -11.0546875 14.6484375 -13 15 C-12.23439544 13.7260098 -11.46227374 12.45593488 -10.6875 11.1875 C-10.25824219 10.47980469 -9.82898438 9.77210937 -9.38671875 9.04296875 C-8.06862773 7.10110508 -6.67035824 5.63453287 -5 4 C-4.34 3.01 -3.68 2.02 -3 1 C-2.01 0.67 -1.02 0.34 0 0 Z " fill="#05E8F8" transform="translate(80,87)"/>
<path d="M0 0 C1 2 1 2 0.25 4.4375 C-1.24937293 7.51121452 -3.03535182 9.1511096 -5.5625 11.375 C-7.3574028 13.40402056 -8.1081561 15.46167506 -9 18 C-9.66 18 -10.32 18 -11 18 C-9.66629344 13.11951338 -7.47529792 9.54881455 -4.375 5.625 C-3.74464844 4.80708984 -3.74464844 4.80708984 -3.1015625 3.97265625 C-2.07499307 2.64278222 -1.03850813 1.32057207 0 0 Z " fill="#27D9DC" transform="translate(59,107)"/>
<path d="M0 0 C2.5 1.1875 2.5 1.1875 5 3 C5.3125 5.6875 5.3125 5.6875 5 8 C5.66 8.33 6.32 8.66 7 9 C7.625 11.0625 7.625 11.0625 8 13 C7.01 13 6.02 13 5 13 C5 12.34 5 11.68 5 11 C4.34 11 3.68 11 3 11 C-0.51460674 4.27640449 -0.51460674 4.27640449 -1 1 C-0.67 0.67 -0.34 0.34 0 0 Z " fill="#17B0E4" transform="translate(275,55)"/>
<path d="M0 0 C1.65 0 3.3 0 5 0 C2.38772848 2.95814719 -0.66570307 4.71876108 -4.0625 6.6875 C-5.12597656 7.31011719 -6.18945312 7.93273437 -7.28515625 8.57421875 C-10 10 -10 10 -12 10 C-12 9.34 -12 8.68 -12 8 C-9 6 -9 6 -6 6 C-6 5.01 -6 4.02 -6 3 C-4.02 2.67 -2.04 2.34 0 2 C0 1.34 0 0.68 0 0 Z " fill="#20BAE3" transform="translate(139,61)"/>
<path d="M0 0 C0.66 0.33 1.32 0.66 2 1 C-3.91684902 8.68490153 -3.91684902 8.68490153 -8.4375 10 C-9.283125 10 -10.12875 10 -11 10 C-4.68882603 2.08392268 -4.68882603 2.08392268 0 0 Z " fill="#1CD3E4" transform="translate(98,70)"/>
<path d="M0 0 C0.33 0.66 0.66 1.32 1 2 C0.34 2 -0.32 2 -1 2 C-1.33 2.99 -1.66 3.98 -2 5 C-4.28515625 5.94921875 -4.28515625 5.94921875 -7.0625 6.6875 C-8.44115234 7.06455078 -8.44115234 7.06455078 -9.84765625 7.44921875 C-10.55792969 7.63097656 -11.26820313 7.81273437 -12 8 C-12 6.68 -12 5.36 -12 4 C-10.02 4 -8.04 4 -6 4 C-6 3.34 -6 2.68 -6 2 C-4.02 1.34 -2.04 0.68 0 0 Z " fill="#1AB0E9" transform="translate(166,48)"/>
<path d="M0 0 C1.51400391 0.01740234 1.51400391 0.01740234 3.05859375 0.03515625 C4.07050781 0.04417969 5.08242187 0.05320313 6.125 0.0625 C7.29869141 0.07990234 7.29869141 0.07990234 8.49609375 0.09765625 C8.49609375 0.42765625 8.49609375 0.75765625 8.49609375 1.09765625 C5.93459747 1.60333354 3.3720991 2.10235757 0.80859375 2.59765625 C-0.27325195 2.81228516 -0.27325195 2.81228516 -1.37695312 3.03125 C-5.14231984 3.75337512 -8.64864438 4.28015385 -12.50390625 4.09765625 C-12.17390625 3.10765625 -11.84390625 2.11765625 -11.50390625 1.09765625 C-10.20453125 1.11828125 -8.90515625 1.13890625 -7.56640625 1.16015625 C-6.21224992 1.18165079 -4.85634542 1.16913824 -3.50390625 1.09765625 C-2.50390625 0.09765625 -2.50390625 0.09765625 0 0 Z " fill="#1A76D8" transform="translate(174.50390625,214.90234375)"/>
<path d="M0 0 C-2.07937949 1.31914392 -4.16308019 2.63038213 -6.25 3.9375 C-6.83652344 4.31068359 -7.42304688 4.68386719 -8.02734375 5.06835938 C-10.95906265 6.8965661 -13.55480229 8.46275382 -17 9 C-17 8.34 -17 7.68 -17 7 C-16.38125 6.731875 -15.7625 6.46375 -15.125 6.1875 C-12.7004767 5.04443152 -12.7004767 5.04443152 -11 2 C-8.90625 1.015625 -8.90625 1.015625 -6.5 0.25 C-5.30890625 -0.14445313 -5.30890625 -0.14445313 -4.09375 -0.546875 C-2 -1 -2 -1 0 0 Z " fill="#165FD5" transform="translate(257,186)"/>
<path d="M0 0 C6.93 0 13.86 0 21 0 C21 0.66 21 1.32 21 2 C18.03 2.66 15.06 3.32 12 4 C12 3.67 12 3.34 12 3 C6.06 2.01 6.06 2.01 0 1 C0 0.67 0 0.34 0 0 Z " fill="#2E90CF" transform="translate(122,194)"/>
<path d="M0 0 C0 0.66 0 1.32 0 2 C-0.99 2 -1.98 2 -3 2 C-3.33 3.32 -3.66 4.64 -4 6 C-4.33 5.34 -4.66 4.68 -5 4 C-5.53109375 4.30035156 -6.0621875 4.60070313 -6.609375 4.91015625 C-7.31578125 5.29042969 -8.0221875 5.67070313 -8.75 6.0625 C-9.79414063 6.63677734 -9.79414063 6.63677734 -10.859375 7.22265625 C-13.36140628 8.1312406 -14.5332355 7.88336837 -17 7 C-15.06374902 6.01836578 -13.12595461 5.03977546 -11.1875 4.0625 C-10.10855469 3.51722656 -9.02960938 2.97195312 -7.91796875 2.41015625 C-2.93074792 0 -2.93074792 0 0 0 Z " fill="#22B8DD" transform="translate(145,45)"/>
<path d="M0 0 C-0.99 1.485 -0.99 1.485 -2 3 C-2.66 3 -3.32 3 -4 3 C-4.2475 3.5775 -4.495 4.155 -4.75 4.75 C-6.16683317 7.3002997 -7.87627537 9.01785701 -10 11 C-10 9.68 -10 8.36 -10 7 C-9.34 7 -8.68 7 -8 7 C-8 6.34 -8 5.68 -8 5 C-7.34 5 -6.68 5 -6 5 C-6 3.35 -6 1.7 -6 0 C-3 -1 -3 -1 0 0 Z " fill="#0E5DD6" transform="translate(303,146)"/>
<path d="M0 0 C0 3.66184524 -0.919642 5.02806 -3 8 C-5.1875 9.8125 -5.1875 9.8125 -7 11 C-7.1875 7.625 -7.1875 7.625 -7 4 C-4 2 -4 2 -2 2 C-1.34 1.34 -0.68 0.68 0 0 Z " fill="#15DBED" transform="translate(79,115)"/>
<path d="M0 0 C0.66 0.33 1.32 0.66 2 1 C1 4 1 4 -0.875 5.1875 C-3 6 -3 6 -6 6 C-6.28875 6.598125 -6.5775 7.19625 -6.875 7.8125 C-8 10 -8 10 -10 13 C-10.66 12.67 -11.32 12.34 -12 12 C-11.21654285 10.82780457 -10.42297164 9.66236332 -9.625 8.5 C-9.18414062 7.8503125 -8.74328125 7.200625 -8.2890625 6.53125 C-7.86367188 6.0259375 -7.43828125 5.520625 -7 5 C-6.34 5 -5.68 5 -5 5 C-5 4.34 -5 3.68 -5 3 C-4.34 3 -3.68 3 -3 3 C-3 2.34 -3 1.68 -3 1 C-2.01 0.67 -1.02 0.34 0 0 Z " fill="#28DAE2" transform="translate(287,31)"/>
<path d="M0 0 C1.93166016 0.01740234 1.93166016 0.01740234 3.90234375 0.03515625 C5.19269531 0.04417969 6.48304687 0.05320313 7.8125 0.0625 C8.81152344 0.07410156 9.81054688 0.08570313 10.83984375 0.09765625 C10.83984375 0.42765625 10.83984375 0.75765625 10.83984375 1.09765625 C3.4283592 2.38063348 -3.63296023 3.35281544 -11.16015625 3.09765625 C-11.16015625 2.76765625 -11.16015625 2.43765625 -11.16015625 2.09765625 C-10.02578125 1.95328125 -8.89140625 1.80890625 -7.72265625 1.66015625 C-4.02637385 1.07653271 -3.6179549 0.1118033 0 0 Z " fill="#25A0E0" transform="translate(111.16015625,200.90234375)"/>
<path d="M0 0 C0.33 0.99 0.66 1.98 1 3 C-0.98 3.99 -0.98 3.99 -3 5 C-2.67 5.66 -2.34 6.32 -2 7 C-2.99 7 -3.98 7 -5 7 C-5 6.01 -5 5.02 -5 4 C-6.65 4 -8.3 4 -10 4 C-6.86268382 1.90845588 -3.85464592 0 0 0 Z " fill="#1471E6" transform="translate(198,193)"/>
<path d="M0 0 C0.66 0.99 1.32 1.98 2 3 C-0.56428003 7.17882671 -3.01930733 10.12505529 -7 13 C-6.67 11.68 -6.34 10.36 -6 9 C-5.34 9 -4.68 9 -4 9 C-3.71125 8.071875 -3.4225 7.14375 -3.125 6.1875 C-2 3 -2 3 0 0 Z " fill="#07EDF5" transform="translate(54,116)"/>
<path d="M0 0 C6.93 0.33 13.86 0.66 21 1 C21 1.33 21 1.66 21 2 C15.06 2 9.12 2 3 2 C2.67 2.99 2.34 3.98 2 5 C1.34 4.34 0.68 3.68 0 3 C0 2.01 0 1.02 0 0 Z " fill="#F6F6F6" transform="translate(716,90)"/>
<path d="M0 0 C3.3 0 6.6 0 10 0 C9.67 0.66 9.34 1.32 9 2 C10.65 2.33 12.3 2.66 14 3 C14 3.33 14 3.66 14 4 C12.0412957 3.85923685 10.08303907 3.7122324 8.125 3.5625 C7.03445312 3.48128906 5.94390625 3.40007812 4.8203125 3.31640625 C2 3 2 3 0 2 C0 1.34 0 0.68 0 0 Z " fill="#3095C3" transform="translate(97,215)"/>
<path d="M0 0 C0.33 1.32 0.66 2.64 1 4 C-2.3 4.33 -5.6 4.66 -9 5 C-4.5 0 -4.5 0 0 0 Z " fill="#165BE2" transform="translate(278,146)"/>
<path d="M0 0 C0.99 0.33 1.98 0.66 3 1 C0.21000549 4.48749314 -2.25235831 7.50157221 -6 10 C-6.66 9.67 -7.32 9.34 -8 9 C-6.6875 7 -6.6875 7 -5 5 C-4.01 5 -3.02 5 -2 5 C-2 3.68 -2 2.36 -2 1 C-1.34 0.67 -0.68 0.34 0 0 Z " fill="#065BF4" transform="translate(297,124)"/>
<path d="M0 0 C1.2065625 0.0309375 1.2065625 0.0309375 2.4375 0.0625 C2.4375 1.0525 2.4375 2.0425 2.4375 3.0625 C4.7475 3.0625 7.0575 3.0625 9.4375 3.0625 C9.4375 3.3925 9.4375 3.7225 9.4375 4.0625 C5.4775 4.0625 1.5175 4.0625 -2.5625 4.0625 C-2.8925 3.0725 -3.2225 2.0825 -3.5625 1.0625 C-2.5625 0.0625 -2.5625 0.0625 0 0 Z " fill="#028DFB" transform="translate(124.5625,214.9375)"/>
<path d="M0 0 C3 1 3 1 4.75 3.75 C6.06883276 7.17896517 6.10867421 8.57318882 5 12 C4.34 11.67 3.68 11.34 3 11 C2.25881795 8.68925595 1.59793673 6.35188447 1 4 C0.79375 3.195625 0.5875 2.39125 0.375 1.5625 C0.25125 1.046875 0.1275 0.53125 0 0 Z " fill="#24DAE9" transform="translate(38,165)"/>
<path d="M0 0 C0.99 0.33 1.98 0.66 3 1 C3 1.99 3 2.98 3 4 C2.01 4 1.02 4 0 4 C-0.2165625 5.670625 -0.2165625 5.670625 -0.4375 7.375 C-1 11 -1 11 -2 13 C-2.66 12.67 -3.32 12.34 -4 12 C-3.52494322 10.18641846 -3.04483958 8.37415821 -2.5625 6.5625 C-2.29566406 5.55316406 -2.02882813 4.54382813 -1.75390625 3.50390625 C-1 1 -1 1 0 0 Z " fill="#2B69C0" transform="translate(316,81)"/>
<path d="M0 0 C0 0.99 0 1.98 0 3 C-1.8253125 3.185625 -1.8253125 3.185625 -3.6875 3.375 C-7.06479059 3.78891306 -9.89756695 4.54573451 -13 6 C-13 5.34 -13 4.68 -13 4 C-12.01 4 -11.02 4 -10 4 C-10 3.34 -10 2.68 -10 2 C-6.38026598 0.68373308 -3.90432869 0 0 0 Z " fill="#04BDF7" transform="translate(155,43)"/>
<path d="M0 0 C2.475 0.495 2.475 0.495 5 1 C5 1.66 5 2.32 5 3 C6.65 3 8.3 3 10 3 C10.66 4.32 11.32 5.64 12 7 C7.39104317 5.68315519 3.85859765 3.84801255 0 1 C0 0.67 0 0.34 0 0 Z " fill="#1EC2E2" transform="translate(56,192)"/>
<path d="M0 0 C1.27310312 0.93441535 2.543388 1.87267111 3.8125 2.8125 C4.52019531 3.33457031 5.22789063 3.85664063 5.95703125 4.39453125 C7.78531393 5.83128877 9.39896688 7.31815763 11 9 C9.68 9 8.36 9 7 9 C7 8.34 7 7.68 7 7 C5.68 7 4.36 7 3 7 C0.58152803 4.49515403 0 3.53986194 0 0 Z " fill="#1EB6E2" transform="translate(73,176)"/>
<path d="M0 0 C1.09570312 0.00902344 2.19140625 0.01804688 3.3203125 0.02734375 C4.16335937 0.03894531 5.00640625 0.05054688 5.875 0.0625 C5.875 0.3925 5.875 0.7225 5.875 1.0625 C-1.55 2.5475 -1.55 2.5475 -9.125 4.0625 C-8.795 3.0725 -8.465 2.0825 -8.125 1.0625 C-5.36047967 -0.31976016 -3.0788637 -0.03275387 0 0 Z " fill="#2EA5E2" transform="translate(218.125,33.9375)"/>
<path d="M0 0 C1.98 0.66 3.96 1.32 6 2 C5.67 3.32 5.34 4.64 5 6 C3.35 6 1.7 6 0 6 C-1 3 -1 3 0 0 Z " fill="#0387F9" transform="translate(141,210)"/>
<path d="M0 0 C0.33 0.66 0.66 1.32 1 2 C0.34 2 -0.32 2 -1 2 C-1.33 3.65 -1.66 5.3 -2 7 C-3.65 7.33 -5.3 7.66 -7 8 C-3.375 1.125 -3.375 1.125 0 0 Z " fill="#0C5CDE" transform="translate(302,117)"/>
<path d="M0 0 C0.66 0.33 1.32 0.66 2 1 C-1.99613521 4.71069698 -4.37082652 6.59791618 -10 7 C-7.20283196 3.70921407 -3.80471422 1.93694542 0 0 Z " fill="#26BEDB" transform="translate(126,53)"/>
<path d="M0 0 C-4.46726453 3.31442207 -8.62007164 3.66009167 -14 4 C-11.97803833 1.97803833 -10.74135514 1.32448642 -8.125 0.3125 C-7.44695312 0.04050781 -6.76890625 -0.23148438 -6.0703125 -0.51171875 C-3.68892218 -1.07336741 -2.29569809 -0.76694846 0 0 Z " fill="#21A7D6" transform="translate(167,38)"/>
<path d="M0 0 C-0.33 0.99 -0.66 1.98 -1 3 C-5.62 3.33 -10.24 3.66 -15 4 C-12.19751821 2.1316788 -10.69445074 1.54583465 -7.5 0.875 C-6.7265625 0.70742188 -5.953125 0.53984375 -5.15625 0.3671875 C-3 0 -3 0 0 0 Z " fill="#21A3D9" transform="translate(192,30)"/>
<path d="M0 0 C2.46751239 3.70126859 2.30721156 5.62223532 2 10 C0.984375 12.22265625 0.984375 12.22265625 0 14 C-0.19456705 12.04235617 -0.38044247 10.08384679 -0.5625 8.125 C-0.66691406 7.03445312 -0.77132812 5.94390625 -0.87890625 4.8203125 C-1 2 -1 2 0 0 Z " fill="#F5F5F5" transform="translate(954,165)"/>
<path d="M0 0 C1.65 0 3.3 0 5 0 C4.6875 1.875 4.6875 1.875 4 4 C3.01 4.66 2.02 5.32 1 6 C1 5.34 1 4.68 1 4 C0.34 4 -0.32 4 -1 4 C-0.67 2.68 -0.34 1.36 0 0 Z " fill="#06AFF8" transform="translate(315,57)"/>
<path d="M0 0 C0.66 0.33 1.32 0.66 2 1 C0.03681826 4.53372712 -2.04070881 7.24479785 -5 10 C-3.14285714 2.42857143 -3.14285714 2.42857143 0 0 Z " fill="#1DDDE3" transform="translate(810,48)"/>
<path d="M0 0 C0 0.66 0 1.32 0 2 C-2.58789062 3.07421875 -2.58789062 3.07421875 -5.17578125 4.1484375 C-7.26533932 5.06806692 -7.26533932 5.06806692 -10 7 C-5.57142857 -1.85714286 -5.57142857 -1.85714286 0 0 Z " fill="#05E7FA" transform="translate(288,36)"/>
<path d="M0 0 C0.99 0.33 1.98 0.66 3 1 C0.69 3.31 -1.62 5.62 -4 8 C-4.66 7.67 -5.32 7.34 -6 7 C-5.25 5.0625 -5.25 5.0625 -4 3 C-1.875 2.25 -1.875 2.25 0 2 C0 1.34 0 0.68 0 0 Z " fill="#165ED7" transform="translate(290,157)"/>
<path d="M0 0 C1.34780093 2.69560185 0.67336458 3.742617 -0.25 6.5625 C-0.50265625 7.36816406 -0.7553125 8.17382812 -1.015625 9.00390625 C-1.34046875 9.66261719 -1.6653125 10.32132813 -2 11 C-2.99 11.33 -3.98 11.66 -5 12 C-4.35550393 8.98782888 -3.34977818 6.48344164 -1.9375 3.75 C-1.57527344 3.04359375 -1.21304687 2.3371875 -0.83984375 1.609375 C-0.56269531 1.07828125 -0.28554688 0.5471875 0 0 Z " fill="#155DE2" transform="translate(313,94)"/>
<path d="M0 0 C0 2.97 0 5.94 0 9 C-2.1385485 6.8614515 -2.42655063 5.86724686 -3 3 C-5.97 2.505 -5.97 2.505 -9 2 C-9 1.67 -9 1.34 -9 1 C-5.94152152 0.45627049 -3.11227195 0 0 0 Z " fill="#F4F4F4" transform="translate(747,90)"/>
<path d="M0 0 C0.66 0.33 1.32 0.66 2 1 C1.67 2.65 1.34 4.3 1 6 C2.32 6.33 3.64 6.66 5 7 C4.67 7.66 4.34 8.32 4 9 C2.68 9 1.36 9 0 9 C-1.125 3.375 -1.125 3.375 0 0 Z " fill="#03D9FA" transform="translate(315,38)"/>
<path d="M0 0 C3.08089673 2.77280706 4.68775452 5.06326356 6 9 C4.02 8.34 2.04 7.68 0 7 C0 4.69 0 2.38 0 0 Z " fill="#1ED2EC" transform="translate(316,37)"/>
<path d="M0 0 C0.66 0 1.32 0 2 0 C3.32 2.97 4.64 5.94 6 9 C5.01 9.495 5.01 9.495 4 10 C3.731875 9.401875 3.46375 8.80375 3.1875 8.1875 C2.01506533 6.02775192 0.80630718 4.64209744 -1 3 C-0.67 2.01 -0.34 1.02 0 0 Z " fill="#F5F5F5" transform="translate(949,154)"/>
<path d="M0 0 C0.33 1.32 0.66 2.64 1 4 C0.2575 4.268125 -0.485 4.53625 -1.25 4.8125 C-3.86636554 5.94229421 -5.80187111 7.20893202 -8 9 C-8.66 8.67 -9.32 8.34 -10 8 C-6.7 5.36 -3.4 2.72 0 0 Z " fill="#1C60CB" transform="translate(268,151)"/>
<path d="M0 0 C0.66 0.33 1.32 0.66 2 1 C1.2884375 1.6496875 1.2884375 1.6496875 0.5625 2.3125 C-1.23686957 4.02309613 -1.23686957 4.02309613 -2 7 C-5.0625 8.1875 -5.0625 8.1875 -8 9 C-8 8.34 -8 7.68 -8 7 C-6.25 5.2734375 -6.25 5.2734375 -4 3.375 C-3.2575 2.74335937 -2.515 2.11171875 -1.75 1.4609375 C-1.1725 0.97882813 -0.595 0.49671875 0 0 Z " fill="#28D3DE" transform="translate(85,80)"/>
<path d="M0 0 C0 0.66 0 1.32 0 2 C-0.99 2 -1.98 2 -3 2 C-3.33 2.99 -3.66 3.98 -4 5 C-6.31 4.67 -8.62 4.34 -11 4 C-7.61125486 1.74083657 -4.15175481 0 0 0 Z " fill="#1F76D7" transform="translate(188,197)"/>
<path d="M0 0 C0.33 1.32 0.66 2.64 1 4 C-0.75 5.0625 -0.75 5.0625 -3 6 C-4.32 5.67 -5.64 5.34 -7 5 C-4.69 3.35 -2.38 1.7 0 0 Z " fill="#1B63DA" transform="translate(255,161)"/>
<path d="M0 0 C1.4540625 0.0309375 1.4540625 0.0309375 2.9375 0.0625 C3.2675 1.0525 3.5975 2.0425 3.9375 3.0625 C1.625 3.75 1.625 3.75 -1.0625 4.0625 C-2.875 2.625 -2.875 2.625 -4.0625 1.0625 C-3.0625 0.0625 -3.0625 0.0625 0 0 Z " fill="#1197E2" transform="translate(816.0625,76.9375)"/>
<path d="M0 0 C-2.69508748 1.79672498 -3.97444588 2.35821579 -7 3 C-8.11375 3.2784375 -8.11375 3.2784375 -9.25 3.5625 C-9.8275 3.706875 -10.405 3.85125 -11 4 C-11.33 3.01 -11.66 2.02 -12 1 C-7.9472484 0.01751476 -4.16138263 -0.08159574 0 0 Z " fill="#2EAADF" transform="translate(198,40)"/>
<path d="M0 0 C0.99 0.33 1.98 0.66 3 1 C2.3125 2.9375 2.3125 2.9375 1 5 C-1.625 5.75 -1.625 5.75 -4 6 C-2.84826645 3.53199953 -1.95216435 1.95216435 0 0 Z " fill="#05DFF3" transform="translate(87,80)"/>
<path d="M0 0 C0.99 0.33 1.98 0.66 3 1 C2.01 2.98 1.02 4.96 0 7 C-0.66 6.67 -1.32 6.34 -2 6 C-2.625 3.4375 -2.625 3.4375 -3 1 C-2.01 1.33 -1.02 1.66 0 2 C0 1.34 0 0.68 0 0 Z " fill="#04ADF2" transform="translate(812,72)"/>
<path d="M0 0 C0.66 0.33 1.32 0.66 2 1 C2.4140625 3.06640625 2.4140625 3.06640625 2.625 5.5625 C2.69976562 6.38878906 2.77453125 7.21507812 2.8515625 8.06640625 C2.90054688 8.70449219 2.94953125 9.34257812 3 10 C0.47411298 7.63707344 -0.88820837 6.33537489 -2 3 C-1.34 2.01 -0.68 1.02 0 0 Z " fill="#1ED4E9" transform="translate(45,175)"/>
<path d="M0 0 C1.33332095 2.6666419 0.67102033 4.16680303 0 7 C-0.66 7 -1.32 7 -2 7 C-2.33 7.99 -2.66 8.98 -3 10 C-4 7 -4 7 -3.22265625 5.17578125 C-2.1484375 3.45052083 -1.07421875 1.72526042 0 0 Z " fill="#31DDDA" transform="translate(47,125)"/>
<path d="M0 0 C1.65 0.33 3.3 0.66 5 1 C2.47211993 3.79872437 0.79588866 5.45773019 -3 6 C-2.505 5.195625 -2.01 4.39125 -1.5 3.5625 C0.08419653 1.35103815 0.08419653 1.35103815 0 0 Z " fill="#05A9FB" transform="translate(826,71)"/>
<path d="M0 0 C-2.70188004 1.80125336 -4.93057703 3.00243753 -8 4 C-8.99 3.67 -9.98 3.34 -11 3 C-10.34 3 -9.68 3 -9 3 C-9 2.34 -9 1.68 -9 1 C-6.04335481 -0.4783226 -3.25770263 -0.06032783 0 0 Z " fill="#27ADDC" transform="translate(176,47)"/>
<path d="M0 0 C6.4 -0.36923077 6.4 -0.36923077 9.4375 1.5 C9.953125 1.995 10.46875 2.49 11 3 C9.54077307 2.88590407 8.08259402 2.75834456 6.625 2.625 C5.40683594 2.52058594 5.40683594 2.52058594 4.1640625 2.4140625 C2 2 2 2 0 0 Z " fill="#15E6E6" transform="translate(822,46)"/>
<path d="M0 0 C1.2065625 0.0309375 1.2065625 0.0309375 2.4375 0.0625 C1.4475 0.5575 1.4475 0.5575 0.4375 1.0625 C0.4375 1.7225 0.4375 2.3825 0.4375 3.0625 C-0.2225 3.0625 -0.8825 3.0625 -1.5625 3.0625 C-1.8925 4.0525 -2.2225 5.0425 -2.5625 6.0625 C-2.8925 6.0625 -3.2225 6.0625 -3.5625 6.0625 C-3.605221 4.39638095 -3.60313832 2.72867115 -3.5625 1.0625 C-2.5625 0.0625 -2.5625 0.0625 0 0 Z " fill="#1FD2EC" transform="translate(89.5625,100.9375)"/>
<path d="M0 0 C1.32 0.33 2.64 0.66 4 1 C-1.75 6 -1.75 6 -4 6 C-3.67 4.68 -3.34 3.36 -3 2 C-2.01 2 -1.02 2 0 2 C0 1.34 0 0.68 0 0 Z " fill="#1EC7E4" transform="translate(112,79)"/>
<path d="M0 0 C0.66 0 1.32 0 2 0 C2.33 1.65 2.66 3.3 3 5 C2.34 5 1.68 5 1 5 C0.67 5.99 0.34 6.98 0 8 C-1.09658936 4.71023192 -0.79953138 3.28696233 0 0 Z " fill="#06B9F9" transform="translate(834,64)"/>
<path d="M0 0 C1.98 0 3.96 0 6 0 C3.60490662 2.89932357 1.68754757 3.50168276 -2 4 C-1.34 2.68 -0.68 1.36 0 0 Z " fill="#F6F6F6" transform="translate(932,201)"/>
<path d="M0 0 C0.66 0 1.32 0 2 0 C1.67 3.3 1.34 6.6 1 10 C0.67 10 0.34 10 0 10 C-0.19412181 8.52168779 -0.38012131 7.04230684 -0.5625 5.5625 C-0.66691406 4.73878906 -0.77132812 3.91507813 -0.87890625 3.06640625 C-0.91886719 2.38449219 -0.95882812 1.70257813 -1 1 C-0.67 0.67 -0.34 0.34 0 0 Z " fill="#23D5EC" transform="translate(67,134)"/>
</svg>
